# AST/ASF file generated using VICON BodyLanguage
# -----------------------------------------------
:version 1.10
:name VICON
:units
  mass 1.0
  length 0.45
  angle deg
:documentation
   .ast/.asf automatically generated from VICON data using
   VICON BodyBuilder and BodyLanguage model FoxedUp or BRILLIANT.MOD
:root
   order TX TY TZ RX RY RZ
   axis XYZ
   position 0 0 0  
   orientation 0 -0 0 
:bonedata
  begin
     id 1 
     name lhipjoint
     direction 0.500677 -0.737119 0.453848 
     length 2.34727 
     axis 0 -0 0  XYZ
  end
  begin
     id 2 
     name lfemur
     direction 0.34202 -0.939693 0  
     length 7.53653  
     axis 0 -0 20  XYZ
    dof rx ry rz
    limits (-160.0 20.0)
           (-70.0 70.0)
           (-60.0 70.0)
  end
  begin
     id 3 
     name ltibia
     direction 0.34202 -0.939693 0   
     length 6.85572   
     axis 0 -0 20   XYZ
    dof rx
    limits (-10.0 170.0)
  end
  begin
     id 4 
     name lfoot
     direction 0.155313 -0.426718 0.890949   
     length 2.18324   
     axis -90 -1.13533e-015 20   XYZ
    dof rx rz
    limits (-45.0 90.0)
           (-70.0 20.0)
  end
  begin
     id 5 
     name ltoes
     direction 1.53474e-011 -4.21647e-011 1   
     length 1.06748   
     axis -90 -1.13533e-015 20   XYZ
    dof rx
    limits (-90.0 20.0)
  end
  begin
     id 6 
     name rhipjoint
     direction -0.632471 -0.659587 0.406111   
     length 2.62319  
     axis 0 -0 0  XYZ 
  end
  begin
     id 7 
     name rfemur
     direction -0.34202 -0.939693 0   
     length 7.21735   
     axis 0 -0 -20   XYZ
    dof rx ry rz
    limits (-160.0 20.0)
           (-70.0 70.0)
           (-70.0 60.0)
  end
  begin
     id 8 
     name rtibia
     direction -0.34202 -0.939693 0   
     length 7.02558   
     axis 0 -0 -20   XYZ
    dof rx
    limits (-10.0 170.0)
 end
 begin
     id 9 
     name rfoot
     direction -0.16057 -0.441164 0.882945   
     length 2.10014  
     axis -90 1.13533e-015 -20   XYZ
    dof rx rz
    limits (-45.0 90.0)
           (-20.0 70.0)
  end
  begin
     id 10 
     name rtoes
     direction -1.53553e-011 -4.2192e-011 1   
     length 1.02554   
     axis -90 1.13533e-015 -20   XYZ
    dof rx
    limits (-90.0 20.0)
  end
  begin
     id 11 
     name lowerback
     direction 0.0401429 0.998861 -0.0258085   
     length 1.80848   
     axis 0 -0 0   XYZ
    dof rx ry rz
    limits (-20.0 45.0)
           (-30.0 30.0)
           (-30.0 30.0)
  end
  begin
     id 12 
     name upperback
     direction -0.0130978 0.999914 -0.000352645   
     length 1.8116   
     axis 0 -0 0   XYZ
    dof rx ry rz
    limits (-20.0 45.0)
           (-30.0 30.0)
           (-30.0 30.0)
  end
  begin
     id 13 
     name thorax
     direction -0.0300198 0.999453 0.0138573   
     length 1.81778   
     axis 0 -0 0   XYZ
    dof rx ry rz
    limits (-20.0 45.0)
           (-30.0 30.0)
           (-30.0 30.0)
  end
  begin
     id 14 
     name lowerneck
     direction -0.0401726 0.999191 -0.00173647   
     length 2.10594   
     axis 0 -0 0   XYZ
    dof rx ry rz
    limits (-20.0 45.0)
           (-30.0 30.0)
           (-30.0 30.0)
  end
  begin
     id 15 
     name upperneck
     direction 0.0119835 0.998501 0.0534085   
     length 2.07325   
     axis 0 -0 0   XYZ
    dof rx ry rz
    limits (-20.0 45.0)
           (-30.0 30.0)
           (-30.0 30.0)
  end
  begin
     id 16
     name head
     direction 0.00628309 0.999826 0.0175921  
     length 2.15096  
     axis 0 -0 0   XYZ
    dof rx ry rz
    limits (-20.0 45.0)
           (-30.0 30.0)
           (-30.0 30.0)
  end
  begin
     id 17 
     name lclavicle
     direction 0.895501 0.429681 -0.115981  
     length 4.18092  
     axis 0 -0 0   XYZ
    dof ry rz
    limits (-20.0 10.0)
           (0.0 20.0)
  end
  begin
     id 18 
     name lhumerus
     direction 1 -4.48961e-011 -3.38433e-028   
     length 5.77237   
     axis 180 -30 -90   XYZ
    dof rx ry rz
    limits (-60.0 90.0)
           (-90.0 90.0)
           (-90.0 90.0)
  end
  begin
     id 19
     name lradius
     direction 1 -4.4901e-011 1.11983e-026   
     length 2.91878   
     axis 180 -30 -90   XYZ
    dof rx
    limits (-10.0 170.0)
  end
  begin
     id 20
     name lwrist
     direction 1 -4.48934e-011 1.88176e-026   
     length 1.45939   
     axis -1.23311e-014 90 90   XYZ
    dof ry
    limits (-180.0 0.0)
 end
  begin
     id 21 
     name lhand
     direction 1 -4.4895e-011 3.76352e-026   
     length 1.06566   
     axis -2.40147e-014 90 90   XYZ
    dof rx rz
    limits (-90.0 90.0)
           (-45.0 45.0)
  end
  begin
     id 22 
     name lfingers
     direction 1 -4.49005e-011 7.52705e-026   
     length 0.859162   
     axis -4.80295e-014 90 90   XYZ
    dof rx
    limits (0.0 90.0)
  end
  begin
     id 23
     name lthumb
     direction 0.707107 -6.34885e-011 0.707107   
     length 1.23359   
     axis -90 45 -9.86935e-015   XYZ
    dof rx rz
    limits (-45.0 45.0)
           (-45.0 45.0)
  end
  begin
     id 24 
     name rclavicle
     direction -0.91006 0.40451 -0.0903492   
     length 4.23293  
     axis 0 -0 0   XYZ 
    dof ry rz
    limits (-10.0 20.0)
           (-20.0 0.0)
  end
  begin
     id 25 
     name rhumerus
     direction -1 -4.4897e-011 1.7415e-027  
     length 5.49854   
     axis 180 30 90   XYZ
    dof rx ry rz
    limits (-90.0 60.0)
           (-90.0 90.0)
           (-90.0 90.0)
  end
  begin
     id 26 
     name rradius
     direction -1 -4.48963e-011 1.21259e-026   
     length 3.1186   
     axis 180 30 90   XYZ
    dof rx
    limits (-10.0 170.0)
  end
  begin
     id 27 
     name rwrist
     direction -1 -4.48967e-011 1.88176e-026   
     length 1.5593   
     axis -1.23311e-014 -90 -90   XYZ
    dof ry
    limits (-180.0 0.0)
  end
  begin
     id 28
     name rhand
     direction -1 -4.4895e-011 3.76352e-026   
     length 0.71207   
     axis -2.40147e-014 -90 -90   XYZ
    dof rx rz
    limits (-90.0 90.0)
           (-45.0 45.0)
  end
  begin
     id 29
     name rfingers
     direction -1 -4.49005e-011 7.52705e-026   
     length 0.574089   
     axis -4.80295e-014 -90 -90   XYZ
    dof rx
    limits (0.0 90.0)
  end
  begin
     id 30
     name rthumb
     direction -0.707107 -6.34982e-011 0.707107   
     length 0.824281   
     axis -90 -45 9.86935e-015   XYZ
    dof rx rz
    limits (-45.0 45.0)
           (-45.0 45.0)
  end
:hierarchy
  begin
    root lhipjoint rhipjoint lowerback
    lhipjoint lfemur
    lfemur ltibia
    ltibia lfoot
    lfoot ltoes
    rhipjoint rfemur
    rfemur rtibia
    rtibia rfoot
    rfoot rtoes
    lowerback upperback
    upperback thorax
    thorax lowerneck lclavicle rclavicle
    lowerneck upperneck
    upperneck head
    lclavicle lhumerus
    lhumerus lradius
    lradius lwrist
    lwrist lhand lthumb
    lhand lfingers
    rclavicle rhumerus
    rhumerus rradius
    rradius rwrist
    rwrist rhand rthumb
    rhand rfingers
  end

#!OML:ASF C:\ViconDB\ViconDB\414\Spring2016\042216\male.ASF
:FULLY-SPECIFIED
:DEGREES
449
root 6.13809 17.7896 9.39518 291.771 76.2474 649.042
lowerback 0.407833 -0.140239 9.8085
upperback -2.05014 -0.0509946 -1.96721
thorax -2.39323 -0.233043 -7.59339
lowerneck 0.495827 12.0004 -3.48439
upperneck -10.7977 15.7689 -3.5708
head -3.57798 8.12001 -1.1039
rclavicle 1.15792e-014 -6.36111e-015
rhumerus -22.6341 26.4349 -108.979
rradius 39.3738
rwrist 18.0204
rhand 11.1243 -20.4261
rfingers 7.12502
rthumb 36.1919 -46.6953
lclavicle 1.15792e-014 -6.36111e-015
lhumerus -37.3418 16.9906 77.5061
lradius 33.3423
lwrist -18.8321
lhand -9.11107 16.5043
lfingers 7.12502
lthumb 16.8395 45.7941
rfemur -4.92975 -3.72997 30.3404
rtibia 38.184
rfoot -12.3207 -19.4059
rtoes -15.2207
lfemur -11.2717 -2.32463 -7.58615
ltibia 25.8308
lfoot -20.2275 16.0243
ltoes -13.8313
450
root 6.23447 17.7829 9.39602 292.46 76.67 649.765
lowerback 0.331291 -0.317787 9.38162
upperback -1.96123 -0.309316 -2.09014
thorax -2.30424 -0.347686 -7.47294
lowerneck 0.620902 12.2 -3.42175
upperneck -11.0794 16.0155 -3.7674
head -3.67726 8.25229 -1.20694
rclavicle 1.31198e-014 -1.90833e-014
rhumerus -22.6095 26.7919 -109.14
rradius 39.5596
rwrist 17.9861
rhand 11.3183 -20.3702
rfingers 7.12502
rthumb 36.3756 -46.5935
lclavicle 1.31198e-014 -1.90833e-014
lhumerus -36.7139 16.3534 77.7678
lradius 33.3721
lwrist -17.7797
lhand -9.68881 15.8536
lfingers 7.12502
lthumb 16.2833 45.1899
rfemur -5.50715 -3.45249 29.7499
rtibia 37.452
rfoot -13.1512 -19.5051
rtoes -14.6529
lfemur -10.8328 -2.36581 -8.16184
ltibia 25.8194
lfoot -20.235 16.2195
ltoes -14.2695
451
root 6.32969 17.7716 9.39648 293.028 76.9346 650.561
lowerback 0.463282 -0.518373 9.0162
upperback -1.85459 -0.575861 -2.09995
thorax -2.31336 -0.4713 -7.26565
lowerneck 0.82917 12.3905 -3.36827
upperneck -11.3074 16.2352 -4.06529
head -3.76422 8.37455 -1.34276
rclavicle -1.73937e-015 1.43125e-014
rhumerus -22.7732 27.3884 -109.302
rradius 39.7916
rwrist 18.0776
rhand 11.5979 -20.2884
rfingers 7.12502
rthumb 36.6403 -46.445
lclavicle -1.73937e-015 1.43125e-014
lhumerus -36.1333 16.138 77.9269
lradius 33.2697
lwrist -17.0336
lhand -9.82238 15.8652
lfingers 7.12502
lthumb 16.1547 45.212
rfemur -5.91312 -3.00747 29.3396
rtibia 36.7339
rfoot -14.1151 -19.7154
rtoes -14.4256
lfemur -10.1836 -2.49261 -8.58325
ltibia 25.8537
lfoot -20.6459 16.4854
ltoes -14.3427
452
root 6.41322 17.7555 9.40087 294.777 76.8873 652.521
lowerback 0.749288 -0.566716 8.88479
upperback -1.67684 -0.624313 -2.06673
thorax -2.29476 -0.486112 -7.15179
lowerneck 0.555311 12.4656 -3.60519
upperneck -11.4311 16.3324 -4.17876
head -3.76823 8.4396 -1.33354
rclavicle 1.84373e-014 2.70347e-014
rhumerus -22.5942 27.904 -109.308
rradius 39.8576
rwrist 17.8988
rhand 11.0973 -20.4844
rfingers 7.12502
rthumb 36.1663 -46.7598
lclavicle 1.84373e-014 2.70347e-014
lhumerus -35.2512 15.6956 78.2517
lradius 33.3107
lwrist -15.058
lhand -10.0294 15.7331
lfingers 7.12502
lthumb 15.9553 45.0959
rfemur -6.47648 -2.12031 29.1943
rtibia 36.0469
rfoot -14.7496 -19.9482
rtoes -14.2915
lfemur -9.52231 -2.97689 -8.78525
ltibia 25.8555
lfoot -20.9463 17.3491
ltoes -14.0588
453
root 6.49964 17.7396 9.40354 295.884 76.8971 653.669
lowerback 0.82978 -0.651552 8.77751
upperback -1.63386 -0.733255 -2.00994
thorax -2.31279 -0.537607 -7.02565
lowerneck 0.767055 12.597 -3.6265
upperneck -11.6831 16.467 -4.4974
head -3.86959 8.52519 -1.46527
rclavicle 9.39258e-015 -2.70347e-014
rhumerus -22.7592 28.2141 -109.41
rradius 40.0374
rwrist 17.8033
rhand 11.2839 -20.6162
rfingers 7.12502
rthumb 36.343 -46.8477
lclavicle 9.39258e-015 -2.70347e-014
lhumerus -34.671 15.765 78.3329
lradius 33.2488
lwrist -13.8738
lhand -9.62022 15.1829
lfingers 7.12502
lthumb 16.3493 44.5137
rfemur -7.2037 -1.27907 29.0446
rtibia 35.4308
rfoot -15.4547 -20.1894
rtoes -14.4082
lfemur -9.05501 -3.35487 -8.97962
ltibia 25.8086
lfoot -21.1359 17.9685
ltoes -14.3093
454
root 6.58121 17.7239 9.40427 296.996 77.0648 654.889
lowerback 1.10717 -0.837446 8.5128
upperback -1.57781 -0.965426 -2.02579
thorax -2.44836 -0.653923 -6.88002
lowerneck 0.815385 12.7899 -3.58657
upperneck -11.9234 16.7019 -4.74227
head -3.93639 8.65498 -1.5731
rclavicle 3.3197e-014 3.97569e-014
rhumerus -22.9362 28.9458 -109.557
rradius 40.2292
rwrist 17.7111
rhand 11.448 -20.5803
rfingers 7.12502
rthumb 36.4984 -46.7728
lclavicle 3.3197e-014 3.97569e-014
lhumerus -34.185 15.6816 78.329
lradius 33.4526
lwrist -12.3367
lhand -9.49557 15.2254
lfingers 7.12502
lthumb 16.4694 44.5463
rfemur -7.91722 -0.655816 28.701
rtibia 34.9059
rfoot -16.0274 -20.2347
rtoes -14.6664
lfemur -8.53053 -3.74126 -9.36218
ltibia 25.7323
lfoot -21.3065 18.5225
ltoes -14.2638
